<svg width="160" height="160" viewBox="0 0 160 160" fill="none" xmlns="http://www.w3.org/2000/svg">
<path d="M79.9999 13.3333C43.1999 13.3333 13.3333 43.2 13.3333 80C13.3333 116.8 43.1999 146.667 79.9999 146.667C116.8 146.667 146.667 116.8 146.667 80C146.667 43.2 116.8 13.3333 79.9999 13.3333ZM79.9999 33.3333C91.0666 33.3333 99.9999 42.2667 99.9999 53.3333C99.9999 64.4 91.0666 73.3333 79.9999 73.3333C68.9333 73.3333 59.9999 64.4 59.9999 53.3333C59.9999 42.2667 68.9333 33.3333 79.9999 33.3333ZM79.9999 128C63.3333 128 48.5999 119.467 39.9999 106.533C40.1999 93.2667 66.6666 86 79.9999 86C93.2666 86 119.8 93.2667 120 106.533C111.4 119.467 96.6666 128 79.9999 128Z" fill="black"/>
</svg>
