<svg width="70" height="71" viewBox="0 0 70 71" fill="none" xmlns="http://www.w3.org/2000/svg">
<path d="M7.15625 56.2084C7.15625 57.0886 7.8698 57.8021 8.75 57.8021C9.6302 57.8021 10.3438 57.0886 10.3438 56.2084H7.15625ZM42.1563 56.2084C42.1563 57.0886 42.8698 57.8021 43.75 57.8021C44.6302 57.8021 45.3438 57.0886 45.3438 56.2084H42.1563ZM43.75 30.948C42.8698 30.948 42.1563 31.6615 42.1563 32.5417C42.1563 33.4219 42.8698 34.1355 43.75 34.1355V30.948ZM43.75 13.198C42.8698 13.198 42.1563 13.9115 42.1563 14.7917C42.1563 15.6719 42.8698 16.3855 43.75 16.3855V13.198ZM59.6563 56.2084C59.6563 57.0886 60.3698 57.8021 61.25 57.8021C62.1302 57.8021 62.8438 57.0886 62.8438 56.2084H59.6563ZM48.125 39.823C47.2448 39.823 46.5313 40.5365 46.5313 41.4167C46.5313 42.2969 47.2448 43.0105 48.125 43.0105V39.823ZM10.3438 56.2084V53.25H7.15625V56.2084H10.3438ZM20.4167 43.0105H32.0833V39.823H20.4167V43.0105ZM42.1563 53.25V56.2084H45.3438V53.25H42.1563ZM33.4063 23.6667C33.4063 27.7094 30.1811 30.948 26.25 30.948V34.1355C31.9839 34.1355 36.5938 29.427 36.5938 23.6667H33.4063ZM26.25 30.948C22.319 30.948 19.0938 27.7094 19.0938 23.6667H15.9063C15.9063 29.427 20.5161 34.1355 26.25 34.1355V30.948ZM19.0938 23.6667C19.0938 19.624 22.319 16.3855 26.25 16.3855V13.198C20.5161 13.198 15.9063 17.9064 15.9063 23.6667H19.0938ZM26.25 16.3855C30.1811 16.3855 33.4063 19.624 33.4063 23.6667H36.5938C36.5938 17.9064 31.9839 13.198 26.25 13.198V16.3855ZM50.9063 23.6667C50.9063 27.7094 47.6811 30.948 43.75 30.948V34.1355C49.4839 34.1355 54.0938 29.427 54.0938 23.6667H50.9063ZM43.75 16.3855C47.6811 16.3855 50.9063 19.624 50.9063 23.6667H54.0938C54.0938 17.9064 49.4839 13.198 43.75 13.198V16.3855ZM59.6563 53.25V56.2084H62.8438V53.25H59.6563ZM48.125 43.0105H49.5833V39.823H48.125V43.0105ZM62.8438 53.25C62.8438 45.8559 56.9281 39.823 49.5833 39.823V43.0105C55.1252 43.0105 59.6563 47.5735 59.6563 53.25H62.8438ZM32.0833 43.0105C37.6252 43.0105 42.1563 47.5735 42.1563 53.25H45.3438C45.3438 45.8559 39.4281 39.823 32.0833 39.823V43.0105ZM10.3438 53.25C10.3438 47.5735 14.8748 43.0105 20.4167 43.0105V39.823C13.0719 39.823 7.15625 45.8559 7.15625 53.25H10.3438Z" fill="black" fill-opacity="0.5"/>
</svg>
