<svg width="70" height="70" viewBox="0 0 70 70" fill="none" xmlns="http://www.w3.org/2000/svg">
<path d="M41.9604 51.3731C41.338 50.7507 40.3289 50.7507 39.7065 51.3731C39.0841 51.9955 39.0841 53.0046 39.7065 53.627L41.9604 51.3731ZM46.6667 58.3333L45.5398 59.4603C46.1622 60.0827 47.1713 60.0827 47.7937 59.4603L46.6667 58.3333ZM65.2937 41.9603C65.9161 41.3379 65.9161 40.3288 65.2937 39.7064C64.6713 39.084 63.6622 39.084 63.0398 39.7064L65.2937 41.9603ZM10.073 58.3333C10.073 59.2136 10.7865 59.9271 11.6667 59.9271C12.547 59.9271 13.2605 59.2136 13.2605 58.3333H10.073ZM37.1876 42.4271C38.0678 42.4271 38.7813 41.7136 38.7813 40.8333C38.7813 39.9531 38.0678 39.2396 37.1876 39.2396V42.4271ZM39.7065 53.627L45.5398 59.4603L47.7937 57.2064L41.9604 51.3731L39.7065 53.627ZM47.7937 59.4603L65.2937 41.9603L63.0398 39.7064L45.5398 57.2064L47.7937 59.4603ZM13.2605 58.3333V55.4167H10.073V58.3333H13.2605ZM13.2605 55.4167C13.2605 48.2427 19.0761 42.4271 26.2501 42.4271V39.2396C17.3157 39.2396 10.073 46.4823 10.073 55.4167H13.2605ZM42.1563 20.4167C42.1563 25.9798 37.6465 30.4896 32.0834 30.4896V33.6771C39.4069 33.6771 45.3438 27.7402 45.3438 20.4167H42.1563ZM32.0834 30.4896C26.5203 30.4896 22.0105 25.9798 22.0105 20.4167H18.823C18.823 27.7402 24.7599 33.6771 32.0834 33.6771V30.4896ZM22.0105 20.4167C22.0105 14.8536 26.5203 10.3438 32.0834 10.3438V7.15627C24.7599 7.15627 18.823 13.0932 18.823 20.4167H22.0105ZM32.0834 10.3438C37.6465 10.3438 42.1563 14.8536 42.1563 20.4167H45.3438C45.3438 13.0932 39.4069 7.15627 32.0834 7.15627V10.3438ZM26.2501 42.4271H37.1876V39.2396H26.2501V42.4271Z" fill="black" fill-opacity="0.5"/>
</svg>
